<mxfile host="app.diagrams.net" modified="2021-12-25T18:42:16.013Z" agent="5.0 (Windows NT 10.0; Win64; x64) AppleWebKit/537.36 (KHTML, like Gecko) Chrome/96.0.4664.110 Safari/537.36" etag="Wyngk6YhnUkSi_snikVj" version="16.1.0" type="github">
  <diagram id="nY4Z1BW5NSsrqLZAc2jX" name="Page-1">
    <mxGraphModel dx="2522" dy="2281" grid="1" gridSize="10" guides="1" tooltips="1" connect="1" arrows="1" fold="1" page="1" pageScale="1" pageWidth="850" pageHeight="1100" math="0" shadow="0">
      <root>
        <mxCell id="0" />
        <mxCell id="1" parent="0" />
        <mxCell id="EgYcacuHEwXYEigUCl8H-2" value="" style="image;html=1;image=img/lib/clip_art/computers/Network_128x128.png" vertex="1" parent="1">
          <mxGeometry x="-270" y="-980" width="80" height="80" as="geometry" />
        </mxCell>
        <mxCell id="EgYcacuHEwXYEigUCl8H-3" value="ns1.galante.io @ linode&lt;br&gt;&lt;font face=&quot;latoweb, sans-serif&quot; size=&quot;3&quot;&gt;176.58.109.126&lt;/font&gt;" style="text;html=1;align=center;verticalAlign=middle;resizable=0;points=[];autosize=1;strokeColor=none;fillColor=none;" vertex="1" parent="1">
          <mxGeometry x="-300" y="-900" width="140" height="40" as="geometry" />
        </mxCell>
        <mxCell id="EgYcacuHEwXYEigUCl8H-7" value="" style="ellipse;shape=cloud;whiteSpace=wrap;html=1;" vertex="1" parent="1">
          <mxGeometry x="-860" y="-820" width="560" height="390" as="geometry" />
        </mxCell>
        <mxCell id="EgYcacuHEwXYEigUCl8H-4" value="" style="image;html=1;image=img/lib/clip_art/computers/Monitor_Tower_128x128.png" vertex="1" parent="1">
          <mxGeometry x="-710" y="-750" width="80" height="80" as="geometry" />
        </mxCell>
        <mxCell id="EgYcacuHEwXYEigUCl8H-5" value="ns1.ddms.run&lt;br&gt;&lt;span id=&quot;ip_address&quot; style=&quot;margin: 0px ; padding: 0px ; font-family: &amp;#34;arial&amp;#34; , sans-serif ; color: rgb(51 , 51 , 51) ; background-color: rgb(255 , 255 , 255)&quot;&gt;&lt;font style=&quot;font-size: 18px&quot;&gt;24.139.72.21&lt;br&gt;Liberty ISP&lt;/font&gt;&lt;br&gt;&lt;/span&gt;" style="text;html=1;align=center;verticalAlign=middle;resizable=0;points=[];autosize=1;strokeColor=none;fillColor=none;" vertex="1" parent="1">
          <mxGeometry x="-715" y="-675" width="120" height="50" as="geometry" />
        </mxCell>
        <mxCell id="EgYcacuHEwXYEigUCl8H-8" value="PROXYCHAINS" style="text;html=1;align=center;verticalAlign=middle;resizable=0;points=[];autosize=1;strokeColor=none;fillColor=none;" vertex="1" parent="1">
          <mxGeometry x="-280" y="-1080" width="100" height="20" as="geometry" />
        </mxCell>
        <mxCell id="EgYcacuHEwXYEigUCl8H-9" value="" style="image;html=1;image=img/lib/clip_art/computers/Network_128x128.png" vertex="1" parent="1">
          <mxGeometry x="-150" y="-1020" width="80" height="80" as="geometry" />
        </mxCell>
        <mxCell id="EgYcacuHEwXYEigUCl8H-10" value="&lt;br&gt;alxTools.com @ linode&lt;br&gt;&lt;font face=&quot;latoweb, sans-serif&quot; size=&quot;3&quot;&gt;45.79.154.213&lt;/font&gt;" style="text;html=1;align=center;verticalAlign=middle;resizable=0;points=[];autosize=1;strokeColor=none;fillColor=none;" vertex="1" parent="1">
          <mxGeometry x="-180" y="-945" width="140" height="50" as="geometry" />
        </mxCell>
        <mxCell id="EgYcacuHEwXYEigUCl8H-11" value="" style="image;html=1;image=img/lib/clip_art/computers/Network_128x128.png" vertex="1" parent="1">
          <mxGeometry x="-390" y="-1020" width="80" height="80" as="geometry" />
        </mxCell>
        <mxCell id="EgYcacuHEwXYEigUCl8H-12" value="s0urDix.Tk @ linode&lt;br&gt;&lt;span style=&quot;font-family: &amp;#34;latoweb&amp;#34; , sans-serif ; font-size: medium&quot;&gt;66.228.49.114&lt;/span&gt;" style="text;html=1;align=center;verticalAlign=middle;resizable=0;points=[];autosize=1;strokeColor=none;fillColor=none;" vertex="1" parent="1">
          <mxGeometry x="-410" y="-940" width="120" height="40" as="geometry" />
        </mxCell>
        <mxCell id="EgYcacuHEwXYEigUCl8H-13" value="" style="ellipse;shape=cloud;whiteSpace=wrap;html=1;" vertex="1" parent="1">
          <mxGeometry x="-560" y="-430" width="550" height="395" as="geometry" />
        </mxCell>
        <mxCell id="EgYcacuHEwXYEigUCl8H-14" value="" style="image;html=1;image=img/lib/clip_art/computers/Monitor_Tower_128x128.png" vertex="1" parent="1">
          <mxGeometry x="-430" y="-320" width="80" height="80" as="geometry" />
        </mxCell>
        <mxCell id="EgYcacuHEwXYEigUCl8H-48" value="" style="edgeStyle=orthogonalEdgeStyle;rounded=0;orthogonalLoop=1;jettySize=auto;html=1;fontSize=18;" edge="1" parent="1" source="EgYcacuHEwXYEigUCl8H-15">
          <mxGeometry relative="1" as="geometry">
            <mxPoint x="-270" y="-265" as="targetPoint" />
          </mxGeometry>
        </mxCell>
        <mxCell id="EgYcacuHEwXYEigUCl8H-15" value="ns2.ddms.run&lt;br&gt;&lt;span id=&quot;ip_address&quot; style=&quot;margin: 0px ; padding: 0px ; font-family: &amp;#34;arial&amp;#34; , sans-serif ; color: rgb(51 , 51 , 51) ; background-color: rgb(255 , 255 , 255)&quot;&gt;&lt;font style=&quot;font-size: 18px&quot;&gt;45.56.35.77&lt;br&gt;CLARO ISP&lt;/font&gt;&lt;br&gt;&lt;/span&gt;" style="text;html=1;align=center;verticalAlign=middle;resizable=0;points=[];autosize=1;strokeColor=none;fillColor=none;" vertex="1" parent="1">
          <mxGeometry x="-445" y="-250" width="110" height="50" as="geometry" />
        </mxCell>
        <mxCell id="EgYcacuHEwXYEigUCl8H-16" value="" style="image;html=1;image=img/lib/clip_art/computers/Netbook_128x128.png" vertex="1" parent="1">
          <mxGeometry x="-540" y="-705" width="80" height="80" as="geometry" />
        </mxCell>
        <mxCell id="EgYcacuHEwXYEigUCl8H-17" value="&lt;span&gt;ddm-terminal -p 22222:22&lt;br&gt;&lt;font style=&quot;font-size: 18px&quot;&gt;192.168.1.246&lt;/font&gt;&lt;br&gt;&lt;/span&gt;" style="text;html=1;align=center;verticalAlign=middle;resizable=0;points=[];autosize=1;strokeColor=none;fillColor=none;" vertex="1" parent="1">
          <mxGeometry x="-570" y="-635" width="150" height="40" as="geometry" />
        </mxCell>
        <mxCell id="EgYcacuHEwXYEigUCl8H-19" style="edgeStyle=orthogonalEdgeStyle;rounded=0;orthogonalLoop=1;jettySize=auto;html=1;exitX=1;exitY=0.5;exitDx=0;exitDy=0;entryX=1;entryY=0.25;entryDx=0;entryDy=0;fontSize=18;" edge="1" parent="1" source="EgYcacuHEwXYEigUCl8H-4" target="EgYcacuHEwXYEigUCl8H-4">
          <mxGeometry relative="1" as="geometry" />
        </mxCell>
        <mxCell id="EgYcacuHEwXYEigUCl8H-20" value="Villa del Carmen @ Ponce, PR" style="text;html=1;align=center;verticalAlign=middle;resizable=0;points=[];autosize=1;strokeColor=none;fillColor=none;fontSize=18;" vertex="1" parent="1">
          <mxGeometry x="-715" y="-820" width="260" height="30" as="geometry" />
        </mxCell>
        <mxCell id="EgYcacuHEwXYEigUCl8H-21" value="&lt;font style=&quot;font-size: 18px&quot;&gt;Calle Guadalupe @ Ponce, PR&lt;/font&gt;" style="text;html=1;align=center;verticalAlign=middle;resizable=0;points=[];autosize=1;strokeColor=none;fillColor=none;fontSize=18;" vertex="1" parent="1">
          <mxGeometry x="-420" y="-430" width="260" height="30" as="geometry" />
        </mxCell>
        <mxCell id="EgYcacuHEwXYEigUCl8H-33" value="" style="group" vertex="1" connectable="0" parent="1">
          <mxGeometry x="-820" y="-1060" width="200" height="130" as="geometry" />
        </mxCell>
        <mxCell id="EgYcacuHEwXYEigUCl8H-31" value="" style="aspect=fixed;html=1;points=[];align=center;image;fontSize=12;image=img/lib/azure2/networking/Azure_Firewall_Manager.svg;" vertex="1" parent="EgYcacuHEwXYEigUCl8H-33">
          <mxGeometry y="10" width="70" height="60" as="geometry" />
        </mxCell>
        <mxCell id="EgYcacuHEwXYEigUCl8H-30" value="" style="group" vertex="1" connectable="0" parent="EgYcacuHEwXYEigUCl8H-33">
          <mxGeometry x="60" width="140" height="130" as="geometry" />
        </mxCell>
        <mxCell id="EgYcacuHEwXYEigUCl8H-29" value="" style="verticalLabelPosition=bottom;html=1;verticalAlign=top;align=center;strokeColor=none;fillColor=#00BEF2;shape=mxgraph.azure.content_delivery_network;fontSize=18;" vertex="1" parent="EgYcacuHEwXYEigUCl8H-30">
          <mxGeometry x="20" width="100" height="50" as="geometry" />
        </mxCell>
        <mxCell id="EgYcacuHEwXYEigUCl8H-28" value="" style="image;html=1;image=img/lib/clip_art/computers/Workstation_128x128.png;fontSize=18;" vertex="1" parent="EgYcacuHEwXYEigUCl8H-30">
          <mxGeometry x="-20" y="30" width="120" height="110" as="geometry" />
        </mxCell>
        <mxCell id="EgYcacuHEwXYEigUCl8H-32" style="edgeStyle=orthogonalEdgeStyle;rounded=0;orthogonalLoop=1;jettySize=auto;html=1;exitX=1;exitY=0.5;exitDx=0;exitDy=0;entryX=1;entryY=0.75;entryDx=0;entryDy=0;fontSize=18;" edge="1" parent="EgYcacuHEwXYEigUCl8H-30" source="EgYcacuHEwXYEigUCl8H-28" target="EgYcacuHEwXYEigUCl8H-28">
          <mxGeometry relative="1" as="geometry">
            <Array as="points">
              <mxPoint x="80" y="80" />
            </Array>
          </mxGeometry>
        </mxCell>
        <mxCell id="EgYcacuHEwXYEigUCl8H-34" value="jumper @ linode&lt;br&gt;&lt;span style=&quot;font-family: &amp;#34;latoweb&amp;#34; , sans-serif&quot;&gt;&lt;font style=&quot;font-size: 18px&quot;&gt;139.162.121.28&lt;/font&gt;&lt;/span&gt;" style="text;html=1;align=center;verticalAlign=middle;resizable=0;points=[];autosize=1;strokeColor=none;fillColor=none;fontSize=18;" vertex="1" parent="1">
          <mxGeometry x="-795" y="-925" width="150" height="50" as="geometry" />
        </mxCell>
        <mxCell id="EgYcacuHEwXYEigUCl8H-35" value="" style="image;html=1;image=img/lib/clip_art/computers/Monitor_Tower_128x128.png;fontSize=18;" vertex="1" parent="1">
          <mxGeometry x="-816" y="-360" width="80" height="80" as="geometry" />
        </mxCell>
        <mxCell id="EgYcacuHEwXYEigUCl8H-36" value="" style="image;html=1;image=img/lib/clip_art/computers/Monitor_Tower_128x128.png;fontSize=18;" vertex="1" parent="1">
          <mxGeometry x="-696" y="-360" width="80" height="80" as="geometry" />
        </mxCell>
        <mxCell id="EgYcacuHEwXYEigUCl8H-37" value="" style="image;html=1;image=img/lib/clip_art/computers/Monitor_Tower_128x128.png;fontSize=18;" vertex="1" parent="1">
          <mxGeometry x="-816" y="-260" width="80" height="80" as="geometry" />
        </mxCell>
        <mxCell id="EgYcacuHEwXYEigUCl8H-38" value="" style="image;html=1;image=img/lib/clip_art/computers/Monitor_Tower_128x128.png;fontSize=18;" vertex="1" parent="1">
          <mxGeometry x="-696" y="-260" width="80" height="80" as="geometry" />
        </mxCell>
        <mxCell id="EgYcacuHEwXYEigUCl8H-39" value="" style="image;html=1;image=img/lib/clip_art/computers/Monitor_Tower_128x128.png;fontSize=18;" vertex="1" parent="1">
          <mxGeometry x="-816" y="-160" width="80" height="80" as="geometry" />
        </mxCell>
        <mxCell id="EgYcacuHEwXYEigUCl8H-40" value="" style="image;html=1;image=img/lib/clip_art/computers/Monitor_Tower_128x128.png;fontSize=18;" vertex="1" parent="1">
          <mxGeometry x="-696" y="-160" width="80" height="80" as="geometry" />
        </mxCell>
        <mxCell id="EgYcacuHEwXYEigUCl8H-41" value="11.22.33.44" style="text;html=1;align=center;verticalAlign=middle;resizable=0;points=[];autosize=1;strokeColor=none;fillColor=none;fontSize=18;" vertex="1" parent="1">
          <mxGeometry x="-831" y="-290" width="110" height="30" as="geometry" />
        </mxCell>
        <mxCell id="EgYcacuHEwXYEigUCl8H-42" value="11.22.33.44" style="text;html=1;align=center;verticalAlign=middle;resizable=0;points=[];autosize=1;strokeColor=none;fillColor=none;fontSize=18;" vertex="1" parent="1">
          <mxGeometry x="-831" y="-190" width="110" height="30" as="geometry" />
        </mxCell>
        <mxCell id="EgYcacuHEwXYEigUCl8H-43" value="11.22.33.44" style="text;html=1;align=center;verticalAlign=middle;resizable=0;points=[];autosize=1;strokeColor=none;fillColor=none;fontSize=18;" vertex="1" parent="1">
          <mxGeometry x="-831" y="-90" width="110" height="30" as="geometry" />
        </mxCell>
        <mxCell id="EgYcacuHEwXYEigUCl8H-44" value="11.22.33.44" style="text;html=1;align=center;verticalAlign=middle;resizable=0;points=[];autosize=1;strokeColor=none;fillColor=none;fontSize=18;" vertex="1" parent="1">
          <mxGeometry x="-701" y="-290" width="110" height="30" as="geometry" />
        </mxCell>
        <mxCell id="EgYcacuHEwXYEigUCl8H-45" value="11.22.33.44" style="text;html=1;align=center;verticalAlign=middle;resizable=0;points=[];autosize=1;strokeColor=none;fillColor=none;fontSize=18;" vertex="1" parent="1">
          <mxGeometry x="-701" y="-190" width="110" height="30" as="geometry" />
        </mxCell>
        <mxCell id="EgYcacuHEwXYEigUCl8H-46" value="11.22.33.44" style="text;html=1;align=center;verticalAlign=middle;resizable=0;points=[];autosize=1;strokeColor=none;fillColor=none;fontSize=18;" vertex="1" parent="1">
          <mxGeometry x="-701" y="-90" width="110" height="30" as="geometry" />
        </mxCell>
        <mxCell id="EgYcacuHEwXYEigUCl8H-49" value="" style="image;html=1;image=img/lib/clip_art/computers/Virtual_Machine_128x128.png;fontSize=18;" vertex="1" parent="1">
          <mxGeometry x="-745" y="-620" width="80" height="80" as="geometry" />
        </mxCell>
      </root>
    </mxGraphModel>
  </diagram>
</mxfile>
